<svg width="32" height="32" viewBox="0 0 32 32" fill="none" xmlns="http://www.w3.org/2000/svg">
<g clip-path="url(#clip0_5_67)">
<path d="M10.285 5.514C10.714 5.0785 11.428 5.0785 11.872 5.514C12.301 5.93479 12.301 6.63512 11.872 7.05493L3.82499 14.9479H30.379C30.998 14.9489 31.49 15.4314 31.49 16.0386C31.49 16.6457 30.998 17.144 30.379 17.144H3.82499L11.872 25.0223C12.301 25.4578 12.301 26.1591 11.872 26.5789C11.428 27.0144 10.713 27.0144 10.285 26.5789L0.332991 16.8174C-0.11101 16.3966 -0.11101 15.6963 0.332991 15.2765L10.285 5.514Z" fill="white"/>
</g>
<defs>
<clipPath id="clip0_5_67">
<rect width="31.49" height="30.8872" fill="white" transform="matrix(-1 0 0 1 31.49 0.602844)"/>
</clipPath>
</defs>
</svg>
