<svg width="32" height="32" viewBox="0 0 32 32" fill="none" xmlns="http://www.w3.org/2000/svg">
<g clip-path="url(#clip0_5_84)">
<path d="M21.205 5.514C20.776 5.0785 20.062 5.0785 19.618 5.514C19.189 5.93479 19.189 6.63512 19.618 7.05493L27.665 14.9479H1.111C0.492 14.9489 0 15.4314 0 16.0386C0 16.6457 0.492 17.144 1.111 17.144H27.665L19.618 25.0223C19.189 25.4578 19.189 26.1591 19.618 26.5789C20.062 27.0144 20.777 27.0144 21.205 26.5789L31.157 16.8174C31.601 16.3966 31.601 15.6963 31.157 15.2765L21.205 5.514Z" fill="white"/>
</g>
<defs>
<clipPath id="clip0_5_84">
<rect width="31.49" height="30.8872" fill="white" transform="translate(0 0.602844)"/>
</clipPath>
</defs>
</svg>
